<?xml version="1.0" encoding="UTF-8" standalone="no"?>
<svg width="211px" height="192px" viewBox="0 0 211 192" version="1.1" xmlns="http://www.w3.org/2000/svg" xmlns:xlink="http://www.w3.org/1999/xlink" xmlns:sketch="http://www.bohemiancoding.com/sketch/ns">
    <!-- Generator: Sketch 3.5.2 (25235) - http://www.bohemiancoding.com/sketch -->
    <title>icon_farmacia</title>
    <desc>Created with Sketch.</desc>
    <defs></defs>
    <g id="Page-1" stroke="none" stroke-width="1" fill="none" fill-rule="evenodd" sketch:type="MSPage">
        <g id="icon_farmacia" sketch:type="MSLayerGroup">
            <path d="M175.2254,180.2573 L15.7264,149.7773 L32.2714,121.0803 C45.3624,126.1713 61.1194,128.2773 77.3384,127.0313 C95.9024,125.6053 113.1994,119.9333 126.0434,111.0603 C140.7824,100.8773 148.3084,87.5753 147.2354,73.6043 C147.0044,70.5963 146.3614,67.6873 145.3694,64.8843 L198.3554,71.7913 L175.2254,180.2573 Z M11.8074,84.0083 C10.8634,71.7223 20.5754,60.0693 36.1674,52.3213 C35.9854,56.7703 34.9714,61.4893 31.7124,65.9833 C29.8904,68.4963 30.4504,72.0113 32.9634,73.8343 C35.4764,75.6563 38.9924,75.0953 40.8144,72.5833 C48.5594,61.9033 47.6674,50.8163 47.0784,43.4793 L46.9904,42.3733 C45.7644,26.4183 55.4014,12.6213 68.4724,11.6173 C81.5424,10.6133 93.1734,22.7763 94.3994,38.7313 L94.4814,39.8383 C95.0194,47.1793 95.8314,58.2723 105.1174,67.6433 C106.3264,68.8633 107.9554,69.4133 109.5434,69.2913 C110.8264,69.1923 112.0814,68.6563 113.0664,67.6803 C115.2724,65.4953 115.2884,61.9353 113.1034,59.7303 C109.1974,55.7873 107.4744,51.2783 106.6154,46.9093 C123.2074,52.1853 134.5854,62.2173 135.5294,74.5033 C137.0594,94.4243 110.6034,112.7003 76.4384,115.3253 C42.2744,117.9493 13.3374,103.9283 11.8074,84.0083 L11.8074,84.0083 Z M207.9414,65.0123 C206.0494,62.3363 203.1234,60.5733 199.8734,60.1493 L137.4974,52.0183 C133.1674,47.3013 127.4864,43.1763 120.5704,39.8253 C115.8474,37.5363 110.6714,35.6963 105.1874,34.3003 C102.0334,13.9593 85.8114,-0.9897 67.6104,0.4083 C49.4094,1.8063 35.6614,19.0573 35.6524,39.6423 C30.4454,41.8593 25.6114,44.4683 21.2924,47.4523 C6.5534,57.6343 -0.9726,70.9363 0.1004,84.9073 C1.0554,97.3353 8.6684,108.1923 21.6834,115.9393 L5.5554,143.9143 C3.6574,147.2053 3.4704,151.2123 5.0524,154.6663 C6.6354,158.1213 9.7904,160.5963 13.5234,161.3093 L173.0214,191.7893 C173.7654,191.9313 174.5064,192.0003 175.2374,192.0003 C180.6704,192.0003 185.5334,188.2123 186.7074,182.7063 L209.8384,74.2403 C210.5214,71.0343 209.8344,67.6893 207.9414,65.0123 L207.9414,65.0123 Z" id="border" fill="#FFFFFF" sketch:type="MSShapeGroup"></path>
            <g id="fills" transform="translate(17.000000, 17.000000)" sketch:type="MSShapeGroup">
                <path d="M7.9583,50.1844 C2.8463,55.3324 0.2333,61.0114 0.6603,66.5584 C1.7893,81.2564 24.0133,92.7704 51.2553,92.7704 C53.8083,92.7704 56.4093,92.6694 58.9883,92.4714 C74.4923,91.2814 88.7143,86.6994 99.0333,79.5704 C108.4043,73.0964 113.2493,65.4184 112.6753,57.9544 C112.2493,52.4034 108.7973,47.1874 102.9523,42.8784 C104.3693,46.9354 103.4483,51.6304 100.1983,54.8504 C98.2643,56.7664 95.7063,57.9354 92.9943,58.1434 C89.6213,58.4164 86.3283,57.1794 83.9473,54.7764 C73.1343,43.8634 72.1903,30.9694 71.6273,23.2664 L71.5453,22.1644 C70.5743,9.5334 61.8453,-0.3066 51.9223,0.4714 C42.0783,1.2274 34.8653,12.1964 35.8433,24.9234 L35.9293,26.0144 C36.5483,33.7084 37.5843,46.5944 28.5663,59.0294 C26.4103,62.0014 22.9313,63.7754 19.2583,63.7754 C16.8213,63.7754 14.4893,63.0174 12.5163,61.5844 C10.0333,59.7854 8.3983,57.1224 7.9153,54.0914 C7.7053,52.7754 7.7233,51.4574 7.9583,50.1844" id="fill" fill="#AFE2FF"></path>
                <path d="M7.9339,128.5613 L153.6829,156.4133 L174.2879,59.7903 L135.9589,54.7933 C136.0109,55.2483 136.0539,55.7023 136.0889,56.1563 C137.3289,72.2943 128.9089,87.4713 112.3799,98.8893 C98.6939,108.3443 80.3719,114.3793 60.7879,115.8843 C57.6179,116.1273 54.4129,116.2503 51.2629,116.2503 C39.4819,116.2503 28.0619,114.5303 17.9149,111.2483 L7.9339,128.5613 Z" id="fill" fill="#70B6EF"></path>
            </g>
        </g>
    </g>
</svg>