<?xml version="1.0" encoding="UTF-8" standalone="no"?>
<svg width="236px" height="181px" viewBox="0 0 236 181" version="1.1" xmlns="http://www.w3.org/2000/svg" xmlns:xlink="http://www.w3.org/1999/xlink" xmlns:sketch="http://www.bohemiancoding.com/sketch/ns">
    <!-- Generator: Sketch 3.5.2 (25235) - http://www.bohemiancoding.com/sketch -->
    <title>icon_farmacia</title>
    <desc>Created with Sketch.</desc>
    <defs></defs>
    <g id="Page-1" stroke="none" stroke-width="1" fill="none" fill-rule="evenodd" sketch:type="MSPage">
        <g id="icon_farmacia" sketch:type="MSLayerGroup">
            <path d="M200.4763,169.2573 L40.9773,138.7773 L46.3033,129.5413 L166.0313,110.7383 C169.5683,110.1823 172.6593,108.0433 174.4243,104.9293 C176.1893,101.8143 176.4373,98.0643 175.0973,94.7443 L157.9343,52.2303 L223.6063,60.7913 L200.4763,169.2573 Z M17.7883,122.1343 L11.7413,28.1563 L128.9623,11.8283 L164.2103,99.1393 L17.7883,122.1343 Z M233.1923,54.0123 C231.2993,51.3363 228.3743,49.5733 225.1233,49.1493 L152.8893,39.7323 L139.8503,7.4333 C138.0393,2.9483 133.6973,0.0863 128.9683,0.0863 C128.4303,0.0863 127.8883,0.1233 127.3433,0.1993 L10.1213,16.5283 C4.0333,17.3763 -0.3707,22.7763 0.0243,28.9103 L6.0713,122.8883 C6.2833,126.1823 7.8723,129.2343 10.4473,131.2973 C12.5443,132.9773 15.1373,133.8753 17.7883,133.8753 C18.3933,133.8753 19.0023,133.8283 19.6093,133.7333 L31.4013,131.8813 L30.8063,132.9143 C28.9083,136.2053 28.7213,140.2123 30.3033,143.6663 C31.8863,147.1213 35.0413,149.5963 38.7743,150.3093 L198.2723,180.7893 C199.0163,180.9313 199.7573,181.0003 200.4883,181.0003 C205.9213,181.0003 210.7853,177.2123 211.9583,171.7063 L235.0883,63.2403 C235.7723,60.0343 235.0843,56.6883 233.1923,54.0123 L233.1923,54.0123 Z" id="border" fill="#FFFFFF" sketch:type="MSShapeGroup"></path>
            <g id="fills" transform="translate(17.000000, 18.000000)" sketch:type="MSShapeGroup">
                <path d="M0.9484,15.2194 L6.2324,97.3364 L139.0014,76.4864 L108.2344,0.2744 L0.9484,15.2194 Z" id="fill" fill="#AFE2FF"></path>
                <path d="M34.0822,116.7321 L178.9342,144.4131 L199.5372,47.7911 L150.1392,41.3501 L163.5412,74.5471 C165.5622,79.5561 165.1942,85.1241 162.5312,89.8241 C159.8662,94.5231 155.2782,97.6991 149.9422,98.5371 L34.0822,116.7321 Z" id="fill" fill="#70B6EF"></path>
            </g>
        </g>
    </g>
</svg>