<?xml version="1.0" encoding="UTF-8" standalone="no"?>
<svg width="210px" height="202px" viewBox="0 0 210 202" version="1.1" xmlns="http://www.w3.org/2000/svg" xmlns:xlink="http://www.w3.org/1999/xlink" xmlns:sketch="http://www.bohemiancoding.com/sketch/ns">
    <!-- Generator: Sketch 3.5.2 (25235) - http://www.bohemiancoding.com/sketch -->
    <title>farmacia</title>
    <desc>Created with Sketch.</desc>
    <defs></defs>
    <g id="Page-1" stroke="none" stroke-width="1" fill="none" fill-rule="evenodd" sketch:type="MSPage">
        <g id="farmacia" sketch:type="MSLayerGroup">
            <path d="M198.0742,187.9312 C197.5902,187.9752 197.1042,187.9982 196.6182,187.9982 C192.5722,187.9982 188.5262,186.4562 185.4392,183.3692 L185.4382,183.3682 C182.3502,180.2812 178.3032,178.7372 174.2572,178.7372 C170.2102,178.7372 166.1632,180.2812 163.0752,183.3692 C159.9872,186.4572 155.9412,188.0002 151.8932,188.0002 C147.8472,188.0002 143.7992,186.4562 140.7122,183.3692 L140.7112,183.3682 C137.6242,180.2812 133.5772,178.7372 129.5302,178.7372 C125.4832,178.7372 121.4352,180.2812 118.3482,183.3682 L116.0892,185.6282 C113.0012,188.7152 108.9542,190.2592 104.9072,190.2592 C100.8602,190.2592 96.8132,188.7152 93.7252,185.6282 L91.4662,183.3682 C88.3782,180.2802 84.3322,178.7372 80.2842,178.7372 C76.2382,178.7372 72.1902,180.2812 69.1032,183.3682 L69.1022,183.3692 C66.0142,186.4562 61.9682,188.0002 57.9212,188.0002 C53.8742,188.0002 49.8272,186.4562 46.7392,183.3692 C43.6512,180.2802 39.6042,178.7372 35.5572,178.7372 C31.5112,178.7372 27.4632,180.2812 24.3762,183.3682 L24.3752,183.3692 C21.2882,186.4562 17.2422,187.9982 13.1962,187.9982 C12.7102,187.9982 12.2242,187.9752 11.7412,187.9312 L11.7412,14.1732 C12.2242,14.1292 12.7102,14.1062 13.1962,14.1062 C17.2422,14.1062 21.2882,15.6482 24.3752,18.7352 L24.3762,18.7362 C27.4642,21.8232 31.5112,23.3672 35.5572,23.3672 C39.6042,23.3672 43.6512,21.8232 46.7392,18.7352 C49.8272,15.6472 53.8732,14.1032 57.9212,14.1042 C61.9672,14.1042 66.0152,15.6482 69.1022,18.7352 L69.1032,18.7362 C72.1902,21.8232 76.2372,23.3672 80.2842,23.3672 C84.3312,23.3672 88.3792,21.8232 91.4662,18.7362 L93.7252,16.4762 C96.8132,13.3892 100.8602,11.8452 104.9072,11.8452 C108.9542,11.8452 113.0012,13.3892 116.0892,16.4762 L118.3482,18.7362 C121.4362,21.8242 125.4822,23.3672 129.5302,23.3672 C133.5762,23.3672 137.6242,21.8232 140.7112,18.7362 L140.7122,18.7352 C143.8002,15.6482 147.8462,14.1042 151.8932,14.1042 C155.9402,14.1042 159.9872,15.6482 163.0752,18.7352 C166.1632,21.8242 170.2102,23.3672 174.2572,23.3672 C178.3032,23.3672 182.3512,21.8232 185.4382,18.7362 L185.4392,18.7352 C188.5262,15.6482 192.5722,14.1062 196.6192,14.1062 C197.1042,14.1062 197.5902,14.1292 198.0742,14.1732 L198.0742,187.9312 Z M199.1462,2.4812 C198.3092,2.4052 197.4592,2.3662 196.6192,2.3662 C189.2582,2.3662 182.3402,5.2312 177.1372,10.4332 C176.0992,11.4712 174.8872,11.6262 174.2572,11.6262 C173.6272,11.6262 172.4152,11.4712 171.3772,10.4342 C166.1732,5.2292 159.2532,2.3632 151.8932,2.3632 C144.5332,2.3632 137.6142,5.2292 132.4102,10.4332 C131.3722,11.4722 130.1602,11.6272 129.5302,11.6272 C128.9002,11.6272 127.6882,11.4722 126.6502,10.4342 L124.3902,8.1742 C119.1862,2.9702 112.2672,0.1042 104.9072,0.1042 C97.5482,0.1042 90.6282,2.9702 85.4242,8.1742 L83.1642,10.4342 C82.1262,11.4722 80.9142,11.6272 80.2842,11.6272 C79.6542,11.6272 78.4432,11.4722 77.4052,10.4342 C72.2012,5.2302 65.2822,2.3642 57.9222,2.3632 C50.5612,2.3622 43.6422,5.2292 38.4372,10.4342 C37.3992,11.4712 36.1872,11.6262 35.5572,11.6262 C34.9282,11.6262 33.7162,11.4712 32.6782,10.4342 C27.4752,5.2312 20.5562,2.3662 13.1962,2.3662 C12.3552,2.3662 11.5052,2.4052 10.6682,2.4812 C4.6252,3.0362 0.0002,8.1042 0.0002,14.1732 L0.0002,187.9312 C0.0002,194.0002 4.6252,199.0682 10.6682,199.6232 C11.5052,199.6992 12.3552,199.7382 13.1962,199.7382 C20.5552,199.7382 27.4742,196.8732 32.6772,191.6712 C33.7152,190.6322 34.9272,190.4772 35.5572,190.4772 C36.1872,190.4772 37.3992,190.6322 38.4372,191.6702 C43.6412,196.8752 50.5612,199.7412 57.9212,199.7412 C65.2812,199.7412 72.2002,196.8752 77.4042,191.6712 C78.4422,190.6322 79.6542,190.4772 80.2842,190.4772 C80.9142,190.4772 82.1262,190.6322 83.1642,191.6702 L85.4242,193.9292 C90.6282,199.1342 97.5472,202.0002 104.9072,202.0002 C112.2672,202.0002 119.1862,199.1342 124.3902,193.9292 L126.6502,191.6702 C127.6882,190.6322 128.9002,190.4772 129.5302,190.4772 C130.1602,190.4772 131.3712,190.6322 132.4092,191.6702 C137.6142,196.8752 144.5332,199.7412 151.8932,199.7412 C159.2542,199.7412 166.1732,196.8752 171.3772,191.6702 C172.4152,190.6322 173.6272,190.4772 174.2572,190.4772 C174.8872,190.4772 176.0982,190.6322 177.1372,191.6702 C182.3392,196.8732 189.2582,199.7382 196.6182,199.7382 C197.4592,199.7382 198.3092,199.6992 199.1472,199.6232 C205.1902,199.0682 209.8142,193.9992 209.8142,187.9312 L209.8142,14.1732 C209.8142,8.1042 205.1892,3.0362 199.1462,2.4812 L199.1462,2.4812 Z" id="border" fill="#FFFFFF" sketch:type="MSShapeGroup"></path>
            <g id="fills" transform="translate(17.000000, 17.000000)" sketch:type="MSShapeGroup">
                <path d="M87.9067,148.0818 C52.6007,148.0818 23.8787,119.3578 23.8787,84.0528 C23.8787,48.7468 52.6007,20.0228 87.9067,20.0228 C123.2127,20.0228 151.9357,48.7468 151.9357,84.0528 C151.9357,119.3578 123.2127,148.0818 87.9067,148.0818 M172.5897,5.8868 C168.4947,9.9818 163.0497,12.2368 157.2577,12.2368 C151.4657,12.2368 146.0197,9.9818 141.9247,5.8868 C140.0467,4.0088 137.5497,2.9738 134.8927,2.9738 C132.2377,2.9738 129.7407,4.0088 127.8617,5.8868 C123.7677,9.9818 118.3227,12.2378 112.5297,12.2378 C106.7377,12.2378 101.2927,9.9828 97.1967,5.8858 L94.9377,3.6278 C93.0597,1.7498 90.5627,0.7148 87.9067,0.7148 C85.2507,0.7148 82.7537,1.7498 80.8767,3.6278 L78.6177,5.8858 C74.5217,9.9828 69.0767,12.2378 63.2847,12.2378 C57.4927,12.2378 52.0477,9.9828 47.9517,5.8868 C46.0737,4.0088 43.5767,2.9748 40.9197,2.9738 C38.2647,2.9738 35.7677,4.0088 33.8887,5.8868 C29.7957,9.9818 24.3497,12.2368 18.5567,12.2368 C12.7647,12.2368 7.3197,9.9818 3.2237,5.8868 C2.4487,5.1108 1.5667,4.4788 0.6107,4.0038 L0.6107,164.0998 C1.5667,163.6258 2.4487,162.9938 3.2247,162.2178 C7.3197,158.1228 12.7647,155.8668 18.5567,155.8668 C24.3487,155.8668 29.7947,158.1228 33.8897,162.2178 C35.7677,164.0958 38.2647,165.1298 40.9207,165.1298 C43.5767,165.1298 46.0737,164.0958 47.9507,162.2188 C52.0477,158.1218 57.4927,155.8668 63.2847,155.8668 C69.0767,155.8668 74.5217,158.1218 78.6177,162.2178 L80.8767,164.4778 C82.7537,166.3548 85.2507,167.3888 87.9067,167.3888 C90.5627,167.3888 93.0597,166.3548 94.9367,164.4768 L97.1977,162.2168 C101.2927,158.1218 106.7377,155.8668 112.5297,155.8668 C118.3217,155.8668 123.7667,158.1218 127.8627,162.2178 C129.7407,164.0958 132.2377,165.1298 134.8927,165.1298 C137.5497,165.1298 140.0457,164.0958 141.9237,162.2178 C146.0197,158.1218 151.4657,155.8668 157.2577,155.8668 C163.0497,155.8668 168.4947,158.1228 172.5907,162.2178 C173.3657,162.9938 174.2477,163.6258 175.2037,164.0998 L175.2037,4.0038 C174.2477,4.4788 173.3657,5.1098 172.5897,5.8868" id="fill" fill="#70B6EF"></path>
                <path d="M87.9068,142.2112 C55.8378,142.2112 29.7478,116.1212 29.7478,84.0522 C29.7478,51.9832 55.8378,25.8932 87.9068,25.8932 C119.9768,25.8932 146.0658,51.9832 146.0658,84.0522 C146.0658,116.1212 119.9768,142.2112 87.9068,142.2112" id="fill" fill="#B4E1FF"></path>
            </g>
        </g>
    </g>
</svg>