<?xml version="1.0" encoding="UTF-8" standalone="no"?>
<svg width="86px" height="152px" viewBox="0 0 86 152" version="1.1" xmlns="http://www.w3.org/2000/svg" xmlns:xlink="http://www.w3.org/1999/xlink" xmlns:sketch="http://www.bohemiancoding.com/sketch/ns">
    <!-- Generator: Sketch 3.5.2 (25235) - http://www.bohemiancoding.com/sketch -->
    <title>vinos_y_licores</title>
    <desc>Created with Sketch.</desc>
    <defs></defs>
    <g id="Page-1" stroke="none" stroke-width="1" fill="none" fill-rule="evenodd" sketch:type="MSPage">
        <g id="vinos_y_licores" sketch:type="MSLayerGroup">
            <g id="fills" transform="translate(11.000000, 49.000000)" sketch:type="MSShapeGroup">
                <path d="M15.111028,63.7546133 C10.2092214,63.7546133 5.38718575,63.8612546 0.661358779,64.0639213 L5.17156234,93.7439721 C7.10250382,94.1184229 10.4079237,94.5020419 15.111028,94.5020419 C19.8146158,94.5020419 23.1200356,94.1184229 25.0509771,93.7439721 L29.5611807,64.0639213 C24.8353537,63.8612546 20.0128346,63.7546133 15.111028,63.7546133" id="fill" fill="#FCA903"></path>
                <path d="M30.787285,1.11854984 C29.4737226,2.57147683 27.9464707,3.93706413 26.2040789,5.20035302 C22.5505674,7.84804825 20.3691934,12.0311848 20.3682265,16.3890006 L20.3672595,35.3996165 C30.2685318,36.0346387 39.2961908,38.1751848 39.7090662,38.2741054 C42.5987099,38.9665498 44.4411781,41.7001371 43.9954275,44.6320483 L36.4742316,94.1280737 C38.8610763,94.2327848 41.1236718,94.2887594 43.0439771,94.2887594 C51.4997023,94.2887594 62.0140025,93.3825498 65.7211781,92.5868419 C65.7211781,82.9524546 65.7216616,36.646499 65.7192443,16.3788673 C65.7182774,12.0220165 63.5383537,7.84032762 59.8872595,5.19263238 C58.1482519,3.93127365 56.6229338,2.56858159 55.3113053,1.11951492 C51.3111527,0.732518095 47.2147913,0.531781587 43.0444606,0.531781587 C38.8770305,0.531781587 34.7840534,0.732518095 30.787285,1.11854984" id="fill" fill="#E16E2C"></path>
            </g>
            <path d="M79.559285,143.363505 C79.559285,144.886883 63.1999466,146.121219 54.043687,146.121219 C51.2168931,146.121219 47.7045522,146.002514 44.1984962,145.795022 L52.1896158,93.2073651 C52.4105573,91.7529905 51.4794122,90.3719619 50.0464351,90.0283937 C49.5755445,89.9154794 39.150201,87.4453587 28.529056,87.0969651 C28.5295394,78.7427556 28.5295394,71.0496254 28.5305064,65.3884698 C28.5309898,60.0245587 31.1876056,55.0601905 35.5358499,51.9082413 C40.9583435,47.977473 44.7201501,42.5628952 44.7201501,35.5959873 L44.7196667,7.7264254 C44.7196667,6.8096 50.6976565,6.06600635 54.043687,6.06600635 C57.3897176,6.06600635 63.3677074,6.8096 63.3677074,7.7264254 L63.3672239,35.5959873 C63.3672239,42.5633778 67.1333817,47.9687873 72.5553919,51.9010032 C76.9017023,55.0529524 79.5563842,60.0163556 79.5568677,65.3783365 C79.5597684,88.0620444 79.559285,143.363505 79.559285,143.363505 L79.559285,143.363505 Z M6.0437888,94.9898667 C10.1063079,94.1705143 18.3865369,92.72 26.1107863,92.72 C33.8355191,92.72 42.1157481,94.1705143 46.1777837,94.9898667 L38.574883,145.023441 C37.0427964,145.553752 32.8913206,146.334984 26.1107863,146.334984 C19.3307354,146.334984 15.1792595,145.553752 13.647173,145.023441 L6.0437888,94.9898667 Z M85.2331781,65.377854 C85.2322112,58.3100952 81.7401756,51.5588825 75.8917532,47.3178413 C71.3477074,44.0220952 69.0430509,40.0782984 69.0435344,35.5959873 L69.0440178,7.7264254 C69.0440178,6.68413968 68.6901247,3.1688381 64.1349593,1.69178413 C63.2536107,1.40612063 62.176944,1.16533333 60.8430763,0.955911111 C58.6626692,0.613307937 56.0577837,0.400990476 54.043687,0.400990476 C52.0300738,0.400990476 49.4247048,0.613307937 47.2442977,0.955911111 C45.91043,1.16533333 44.8337634,1.40612063 43.9524148,1.69178413 C39.3977328,3.1688381 39.0433562,6.68413968 39.0433562,7.7264254 L39.0438397,35.5959873 C39.0443232,40.0865016 36.742084,44.0327111 32.2004555,47.3241143 C26.3491323,51.5656381 22.8551628,58.3182984 22.8541959,65.3879873 C22.8537125,71.0558984 22.853229,78.7610921 22.8527455,87.1278476 C12.5289288,87.5727492 2.63394148,89.9183746 2.17562087,90.0283937 C0.742643766,90.3719619 -0.188501272,91.7529905 0.0324402036,93.2073651 L8.15167684,146.638019 C8.19470483,148.20386 9.04994656,152 26.1107863,152 C31.5990305,152 35.4033817,151.606248 38.0498448,151.020927 C43.2209389,151.488508 49.4116514,151.786717 54.043687,151.786717 C58.897631,151.786717 65.4649593,151.459556 70.7748066,150.953371 C73.7548575,150.669156 76.1716768,150.346819 77.9575802,149.99553 C79.1763842,149.755708 80.1065623,149.503822 80.8854173,149.2032 C84.9218295,147.645562 85.235112,144.339683 85.235112,143.363505 C85.235112,143.363505 85.2360789,88.0615619 85.2331781,65.377854 L85.2331781,65.377854 Z" id="border" fill="#FFFFFF" sketch:type="MSShapeGroup"></path>
        </g>
    </g>
</svg>