<?xml version="1.0" encoding="UTF-8" standalone="no"?>
<svg width="89px" height="88px" viewBox="0 0 89 88" version="1.1" xmlns="http://www.w3.org/2000/svg" xmlns:xlink="http://www.w3.org/1999/xlink" xmlns:sketch="http://www.bohemiancoding.com/sketch/ns">
    <!-- Generator: Sketch 3.5.2 (25235) - http://www.bohemiancoding.com/sketch -->
    <title>farmacia</title>
    <desc>Created with Sketch.</desc>
    <defs></defs>
    <g id="Page-1" stroke="none" stroke-width="1" fill="none" fill-rule="evenodd" sketch:type="MSPage">
        <g id="farmacia" sketch:type="MSLayerGroup" transform="translate(0.000000, -0.151685)">
            <path d="M54.191538,0.155941573 L33.9876419,0.155941573 C28.8364095,0.155941573 24.6456676,4.33797341 24.6456676,9.47808577 L24.6456676,24.2391476 C24.6456676,24.5213985 24.415913,24.7506757 24.1334889,24.7506757 L9.341684,24.7506757 C4.19045152,24.7506757 0.000124415888,28.9327075 0.000124415888,34.0728199 L0.000124415888,54.2347243 C0.000124415888,59.3752506 4.19045152,63.5572824 9.341684,63.5572824 L24.1334889,63.5572824 C24.415913,63.5572824 24.6456676,63.7865596 24.6456676,64.0683966 L24.6456676,78.8294584 C24.6456676,83.9695708 28.8364095,88.1516026 33.9876419,88.1516026 L54.191538,88.1516026 C59.3427704,88.1516026 63.5330975,83.9695708 63.5330975,78.8294584 L63.5330975,64.0683966 C63.5330975,63.7865596 63.7628522,63.5572824 64.045691,63.5572824 L78.8374959,63.5572824 C83.9883137,63.5572824 88.1790555,59.3752506 88.1790555,54.2347243 L88.1790555,34.0728199 C88.1790555,28.9327075 83.9883137,24.7506757 78.8374959,24.7506757 L64.045691,24.7506757 C63.7628522,24.7506757 63.5330975,24.5213985 63.5330975,24.2391476 L63.5330975,9.47808577 C63.5330975,4.33797341 59.3427704,0.155941573 54.191538,0.155941573 M54.191538,4.56145655 C56.9125134,4.56145655 59.1184071,6.76276554 59.1184071,9.47808577 L59.1184071,24.2391476 C59.1184071,26.9548816 61.3243008,29.1561906 64.045691,29.1561906 L78.8374959,29.1561906 C81.5584714,29.1561906 83.7643651,31.3574996 83.7643651,34.0728199 L83.7643651,54.2347243 C83.7643651,56.9504584 81.5584714,59.1517674 78.8374959,59.1517674 L64.045691,59.1517674 C61.3243008,59.1517674 59.1184071,61.3530764 59.1184071,64.0683966 L59.1184071,78.8294584 C59.1184071,81.5447787 56.9125134,83.7460876 54.191538,83.7460876 L33.9876419,83.7460876 C31.2662518,83.7460876 29.0603581,81.5447787 29.0603581,78.8294584 L29.0603581,64.0683966 C29.0603581,61.3530764 26.8544644,59.1517674 24.1334889,59.1517674 L9.341684,59.1517674 C6.62070853,59.1517674 4.41481484,56.9504584 4.41481484,54.2347243 L4.41481484,34.0728199 C4.41481484,31.3574996 6.62070853,29.1561906 9.341684,29.1561906 L24.1334889,29.1561906 C26.8544644,29.1561906 29.0603581,26.9548816 29.0603581,24.2391476 L29.0603581,9.47808577 C29.0603581,6.76276554 31.2662518,4.56145655 33.9876419,4.56145655 L54.191538,4.56145655" id="border" fill="#FFFFFF" sketch:type="MSShapeGroup"></path>
            <path d="M9.34176694,31.5854938 C7.9673861,31.5854938 6.84888727,32.7012541 6.84888727,34.0727785 L6.84888727,54.234683 C6.84888727,55.6066212 7.9673861,56.7223815 9.34176694,56.7223815 L24.1335718,56.7223815 C28.1924328,56.7223815 31.4948452,60.0175163 31.4948452,64.0683552 L31.4948452,78.829417 C31.4948452,80.2009414 32.6129293,81.3167017 33.9877249,81.3167017 L54.1916209,81.3167017 C55.5660018,81.3167017 56.6840859,80.2009414 56.6840859,78.829417 L56.6840859,64.0683552 C56.6840859,60.0175163 59.9864982,56.7223815 64.0453592,56.7223815 L78.8371641,56.7223815 C80.2119597,56.7223815 81.3300438,55.6066212 81.3300438,54.234683 L81.3300438,34.0727785 C81.3300438,32.7012541 80.2119597,31.5854938 78.8371641,31.5854938 L64.0453592,31.5854938 C59.9864982,31.5854938 56.6840859,28.2899451 56.6840859,24.23952 L56.6840859,9.47845824 C56.6840859,8.1069339 55.5660018,6.99075974 54.1916209,6.99075974 L33.9877249,6.99075974 C32.6129293,6.99075974 31.4948452,8.1069339 31.4948452,9.47845824 L31.4948452,24.23952 C31.4948452,28.2899451 28.1924328,31.5854938 24.1335718,31.5854938 L9.34176694,31.5854938 Z" id="fill" fill="#F05B61" sketch:type="MSShapeGroup"></path>
        </g>
    </g>
</svg>